<svg xmlns="http://www.w3.org/2000/svg" xmlns:xlink="http://www.w3.org/1999/xlink" id="svg_canvas" data-noselect="" viewBox="0 0 600 600" width="510" height="510" preserveAspectRatio="none" version="1.1">  <g id="shape_MdnMWOJ7kt" transform="translate(-386.7785050372273,-1173.1381002987132) rotate(0,617.3947482236329,1414.196923828125) scale(1,1)" filter="" style="cursor: move; opacity: 1;"><g><svg xmlns="http://www.w3.org/2000/svg" xmlns:xlink="http://www.w3.org/1999/xlink" version="1.1" width="1982.8494964472657" height="2828.39384765625" viewBox="0 0 1982.8494964472657 2828.39384765625" data-parent="shape_MdnMWOJ7kt"><g data-width="338.599423828125" transform="translate(448.09503630957033, 0)"><path d="M229.93-132.96L229.93-132.96L229.93-302.44L243.08-302.44L243.08-132.96Q243.08-105.20 221.17-85.47Q199.25-65.75 168.57-65.75Q137.89-65.75 115.97-85.47Q94.06-105.20 94.06-132.96L94.06-132.96L94.06-302.44L107.20-302.44L107.20-132.96Q107.20-110.67 125.19-94.79Q143.18-78.90 168.57-78.90Q193.96-78.90 211.94-94.79Q229.93-110.67 229.93-132.96ZM256.23-132.96L256.23-132.96L256.23-302.44L269.38-302.44L269.38-132.96Q269.38-113.96 261.35-96.70Q253.31-79.44 239.80-66.84Q226.28-54.24 207.65-46.85Q189.02-39.45 168.57-39.45Q148.11-39.45 129.49-46.85Q110.86-54.24 97.34-66.84Q83.83-79.44 75.79-96.70Q67.76-113.96 67.76-132.96L67.76-132.96L67.76-302.44L80.91-302.44L80.91-132.96Q80.91-111.22 92.69-92.69Q104.47-74.15 124.65-63.37Q144.83-52.60 168.57-52.60Q192.31-52.60 212.49-63.37Q232.67-74.15 244.45-92.69Q256.23-111.22 256.23-132.96ZM282.53-132.96L282.53-132.96L282.53-302.44L295.68-302.44L295.68-132.96Q295.68-108.67 285.54-86.48Q275.41-64.29 258.42-48.21Q241.44-32.14 217.88-22.65Q194.32-13.15 168.57-13.15Q142.82-13.15 119.26-22.65Q95.70-32.14 78.71-48.21Q61.73-64.29 51.59-86.48Q41.46-108.67 41.46-132.96L41.46-132.96L41.46-302.44L54.61-302.44L54.61-132.96Q54.61-104.10 69.95-79.54Q85.29-54.97 111.50-40.64Q137.70-26.30 168.57-26.30Q199.43-26.30 225.64-40.64Q251.85-54.97 267.19-79.54Q282.53-104.10 282.53-132.96ZM308.83-132.96L308.83-132.96L308.83-302.44L321.98-302.44L321.98-132.96Q321.98-93.51 301.34-59.81Q280.71-26.12 245.37-6.48Q210.03 13.15 168.57 13.15Q127.11 13.15 91.77-6.48Q56.43-26.12 35.80-59.81Q15.16-93.51 15.16-132.96L15.16-132.96L15.16-302.44L28.31-302.44L28.31-132.96Q28.31-106.11 39.45-81.45Q50.59-56.80 69.40-38.99Q88.21-21.19 114.24-10.59Q140.26 0 168.57 0Q196.88 0 222.90-10.59Q248.93-21.19 267.74-38.99Q286.55-56.80 297.69-81.45Q308.83-106.11 308.83-132.96Z" transform="translate(0 1554.196923828125) " fill="rgb(51, 51, 51)" stroke="rgb(51, 51, 51)" stroke-width="0.623" data-glyph-w="338.599423828125" data-glyph-h="582.23029296875" data-glyph-ascender="432.106923828125" data-glyph-descender="-150.123369140625"/></g></svg></g></g><g id="shape_OVGWd75Ml9" transform="translate(-116.71424075533542,-2.8299147449379234) rotate(0,404.97754276527036,477.96) scale(1,1)" filter="" style="cursor: move; opacity: 1;"><g><svg xmlns="http://www.w3.org/2000/svg" xmlns:xlink="http://www.w3.org/1999/xlink" version="1.1" width="1075.5950855305407" height="955.9200000000001" viewBox="0 0 1075.5950855305407 955.9200000000001" data-parent="shape_OVGWd75Ml9"><g data-width="435.25114" transform="translate(187.35197276527035, 0)"><path d="M26.43-88.59L26.43-64.68L42.10-64.68Q52.46-64.68 58.97-61.50L58.97-61.50Q67.87-57.11 71.86-48.08L71.86-48.08Q74.64-41.31 74.64-33.20L74.64-33.20Q74.64-13.55 60.43-4.78L60.43-4.78Q55.92-1.99 51.14-1.00Q46.35 0 37.59 0L37.59 0L8.63 0L8.63-88.59L26.43-88.59ZM39.58-50.87L26.43-50.87L26.43-13.81L39.58-13.81Q47.95-13.81 52.20-18.99L52.20-18.99Q56.45-24.57 56.45-32.67L56.45-32.67Q56.45-50.87 39.58-50.87L39.58-50.87Z" transform="translate(0 525.46) " fill="rgb(51, 51, 51)" stroke="rgb(51, 51, 51)" stroke-width="0.221" data-glyph-w="79.16072" data-glyph-h="132.82" data-glyph-ascender="114.09237999999999" data-glyph-descender="-18.727619999999998"/><path d="M34.13-13.81L50.87-13.81L50.87-64.68L68.67-64.68L68.67 0L33.60 0Q26.03 0 21.92-1.13Q17.80-2.26 14.61-5.18L14.61-5.18Q7.84-11.29 7.84-24.97L7.84-24.97L7.84-64.68L25.50-64.68L25.50-23.11Q25.50-18.73 27.83-16.27Q30.15-13.81 34.13-13.81L34.13-13.81Z" transform="translate(79.16072 525.46) " fill="rgb(51, 51, 51)" stroke="rgb(51, 51, 51)" stroke-width="0.221" data-glyph-w="77.43406" data-glyph-h="132.82" data-glyph-ascender="114.09237999999999" data-glyph-descender="-18.727619999999998"/><path d="M8.63 0L8.63-64.68L26.43-64.68L26.43 0L8.63 0ZM26.43-71.32L8.63-71.32L8.63-88.59L26.43-88.59L26.43-71.32Z" transform="translate(156.59478000000001 525.46) " fill="rgb(51, 51, 51)" stroke="rgb(51, 51, 51)" stroke-width="0.221" data-glyph-w="35.33012" data-glyph-h="132.82" data-glyph-ascender="114.09237999999999" data-glyph-descender="-18.727619999999998"/><path d="M26.43-88.59L26.43 0L8.63 0L8.63-88.59L26.43-88.59Z" transform="translate(191.9249 525.46) " fill="rgb(51, 51, 51)" stroke="rgb(51, 51, 51)" stroke-width="0.221" data-glyph-w="35.33012" data-glyph-h="132.82" data-glyph-ascender="114.09237999999999" data-glyph-descender="-18.727619999999998"/><path d="M35.33-64.68L52.07-64.68L52.07-88.59L69.73-88.59L69.73 0L39.18 0Q29.88 0 25.10-1.46L25.10-1.46Q13.81-5.05 8.23-15.54L8.23-15.54Q4.38-22.58 4.38-32.81L4.38-32.81Q4.38-49.41 15.54-58.57L15.54-58.57Q22.85-64.68 35.33-64.68L35.33-64.68ZM39.18-13.81L52.07-13.81L52.07-50.87L39.18-50.87Q30.68-50.87 26.30-45.16L26.30-45.16Q22.45-40.38 22.45-32.81L22.45-32.81Q22.45-21.78 28.82-17.00L28.82-17.00Q33.20-13.81 39.18-13.81L39.18-13.81Z" transform="translate(227.25502 525.46) " fill="rgb(51, 51, 51)" stroke="rgb(51, 51, 51)" stroke-width="0.221" data-glyph-w="78.49662" data-glyph-h="132.82" data-glyph-ascender="114.09237999999999" data-glyph-descender="-18.727619999999998"/><path d="M24.04-39.31L61.50-39.31L61.50-25.50L24.04-25.50Q24.57-19.13 28.16-16.47Q31.74-13.81 39.85-13.81L39.85-13.81L61.50-13.81L61.50 0L37.85 0Q30.15 0 25.30-1.39Q20.45-2.79 16.20-5.98L16.20-5.98Q4.38-15.14 4.38-33.20L4.38-33.20Q4.38-44.89 10.63-53.66L10.63-53.66Q14.88-59.64 20.85-62.16Q26.83-64.68 36.53-64.68L36.53-64.68L61.50-64.68L61.50-50.87L37.85-50.87Q30.55-50.87 27.63-48.41Q24.70-45.96 24.04-39.31L24.04-39.31Z" transform="translate(305.75164 525.46) " fill="rgb(51, 51, 51)" stroke="rgb(51, 51, 51)" stroke-width="0.221" data-glyph-w="67.33973999999999" data-glyph-h="132.82" data-glyph-ascender="114.09237999999999" data-glyph-descender="-18.727619999999998"/><path d="M8.63 0L8.63-64.68L34.93-64.68Q43.03-64.68 47.48-63.55Q51.93-62.43 54.85-59.77L54.85-59.77Q57.78-57.11 58.97-53.13Q60.17-49.14 60.17-41.71L60.17-41.71L60.17-35.46L43.03-35.46L43.03-38.92Q43.03-45.82 40.64-48.35Q38.25-50.87 31.48-50.87L31.48-50.87L26.43-50.87L26.43 0L8.63 0Z" transform="translate(373.09138 525.46) " fill="rgb(51, 51, 51)" stroke="rgb(51, 51, 51)" stroke-width="0.221" data-glyph-w="62.15976" data-glyph-h="132.82" data-glyph-ascender="114.09237999999999" data-glyph-descender="-18.727619999999998"/></g></svg></g></g><g id="shape_NKjYAImEym" transform="translate(-63.04995236328443,-1467.068949595699) rotate(0,519.3911526522304,1691.0500000000002) scale(1,1)" filter="" style="cursor: move; opacity: 1;"><g><svg xmlns="http://www.w3.org/2000/svg" xmlns:xlink="http://www.w3.org/1999/xlink" version="1.1" width="1978.482305304461" height="3382.1000000000004" viewBox="0 0 1978.482305304461 3382.1000000000004" data-parent="shape_NKjYAImEym"><g data-width="124.98010000000001" transform="translate(456.90110265223046, 0)"><path d="M30.54 0L30.54-228.82L93.50-228.82L93.50 0L30.54 0ZM93.50-252.31L30.54-252.31L30.54-313.39L93.50-313.39L93.50-252.31Z" transform="translate(0 1859.5500000000002) " fill="rgb(51, 51, 51)" stroke="rgb(51, 51, 51)" stroke-width="0.783" data-glyph-w="124.98010000000001" data-glyph-h="469.85" data-glyph-ascender="403.60115" data-glyph-descender="-66.24885"/></g></svg></g></g>  <!----></svg>