<?xml version="1.0" encoding="utf-8"?>
<!-- Generator: Adobe Illustrator 16.0.4, SVG Export Plug-In . SVG Version: 6.00 Build 0)  -->
<!DOCTYPE svg PUBLIC "-//W3C//DTD SVG 1.1//EN" "http://www.w3.org/Graphics/SVG/1.1/DTD/svg11.dtd">
<svg version="1.1" id="图层_1" xmlns="http://www.w3.org/2000/svg" xmlns:xlink="http://www.w3.org/1999/xlink" x="0px" y="0px"
	 width="150.027px" height="150px" viewBox="25.033 24.958 150.027 150" enable-background="new 25.033 24.958 150.027 150"
	 xml:space="preserve">
<path fill="#F2F2F2" d="M150.058,24.958h24.948v25h-24.948V24.958z M100.048,24.958h24.948v25h-24.948V24.958z M49.982,24.932
	h24.948v25H49.982V24.932z M125.08,50.013h24.948v25H125.08V50.013z M75.071,50.013h24.948v25H75.071V50.013z M25.005,49.986h24.948
	v25H25.005V49.986z M150.086,75.054h24.947v25h-24.947V75.054z M100.076,75.054h24.948v25h-24.948V75.054z M50.01,75.028h24.948v25
	H50.01V75.028z M125.108,100.022h24.948v24.999h-24.948V100.022z M75.099,100.022h24.948v24.999H75.099V100.022z M25.033,99.996
	h24.948v25H25.033V99.996z M150.113,124.99h24.947v25h-24.947V124.99z M100.104,124.99h24.947v25h-24.947V124.99z M50.038,124.965
	h24.948v24.999H50.038V124.965z M125.137,149.959h24.947v24.999h-24.947V149.959z M75.126,149.959h24.948v24.999H75.126V149.959z
	 M25.061,149.933h24.948v24.999H25.061V149.933z"/>
</svg>
